<mxfile host="app.diagrams.net" modified="2023-12-11T05:19:01.089Z" agent="Mozilla/5.0 (Windows NT 10.0; Win64; x64) AppleWebKit/537.36 (KHTML, like Gecko) Chrome/120.0.0.0 Safari/537.36" etag="ScfuV9gl8x6FMaggYJGr" version="22.1.7" type="github">
  <diagram name="第 1 页" id="iP12DBV8bAaUlN6JMXEY">
    <mxGraphModel dx="1050" dy="530" grid="1" gridSize="10" guides="1" tooltips="1" connect="1" arrows="1" fold="1" page="1" pageScale="1" pageWidth="827" pageHeight="1169" math="0" shadow="0">
      <root>
        <mxCell id="0" />
        <mxCell id="1" parent="0" />
        <mxCell id="yWSRPp1NiUVczaKX_BIT-1" value="加工合同申办" style="shape=table;startSize=30;container=1;collapsible=0;childLayout=tableLayout;fixedRows=1;rowLines=0;fontStyle=0;strokeColor=default;fontSize=16;" parent="1" vertex="1">
          <mxGeometry x="320" y="190" width="190" height="560" as="geometry" />
        </mxCell>
        <mxCell id="yWSRPp1NiUVczaKX_BIT-2" value="" style="shape=tableRow;horizontal=0;startSize=0;swimlaneHead=0;swimlaneBody=0;top=0;left=0;bottom=0;right=0;collapsible=0;dropTarget=0;fillColor=none;points=[[0,0.5],[1,0.5]];portConstraint=eastwest;strokeColor=inherit;fontSize=16;" parent="yWSRPp1NiUVczaKX_BIT-1" vertex="1">
          <mxGeometry y="30" width="190" height="30" as="geometry" />
        </mxCell>
        <mxCell id="yWSRPp1NiUVczaKX_BIT-3" value="" style="shape=partialRectangle;html=1;whiteSpace=wrap;connectable=0;fillColor=none;top=0;left=0;bottom=0;right=0;overflow=hidden;pointerEvents=1;strokeColor=inherit;fontSize=16;" parent="yWSRPp1NiUVczaKX_BIT-2" vertex="1">
          <mxGeometry width="42" height="30" as="geometry">
            <mxRectangle width="42" height="30" as="alternateBounds" />
          </mxGeometry>
        </mxCell>
        <mxCell id="yWSRPp1NiUVczaKX_BIT-4" value="操作步骤" style="shape=partialRectangle;html=1;whiteSpace=wrap;connectable=0;fillColor=none;top=0;left=0;bottom=0;right=0;align=left;spacingLeft=6;overflow=hidden;strokeColor=inherit;fontSize=16;" parent="yWSRPp1NiUVczaKX_BIT-2" vertex="1">
          <mxGeometry x="42" width="148" height="30" as="geometry">
            <mxRectangle width="148" height="30" as="alternateBounds" />
          </mxGeometry>
        </mxCell>
        <mxCell id="yWSRPp1NiUVczaKX_BIT-5" value="" style="shape=tableRow;horizontal=0;startSize=0;swimlaneHead=0;swimlaneBody=0;top=0;left=0;bottom=0;right=0;collapsible=0;dropTarget=0;fillColor=none;points=[[0,0.5],[1,0.5]];portConstraint=eastwest;strokeColor=inherit;fontSize=16;" parent="yWSRPp1NiUVczaKX_BIT-1" vertex="1">
          <mxGeometry y="60" width="190" height="30" as="geometry" />
        </mxCell>
        <mxCell id="yWSRPp1NiUVczaKX_BIT-6" value="" style="shape=partialRectangle;html=1;whiteSpace=wrap;connectable=0;fillColor=none;top=0;left=0;bottom=0;right=0;overflow=hidden;strokeColor=inherit;fontSize=16;" parent="yWSRPp1NiUVczaKX_BIT-5" vertex="1">
          <mxGeometry width="42" height="30" as="geometry">
            <mxRectangle width="42" height="30" as="alternateBounds" />
          </mxGeometry>
        </mxCell>
        <mxCell id="yWSRPp1NiUVczaKX_BIT-7" value="" style="shape=partialRectangle;html=1;whiteSpace=wrap;connectable=0;fillColor=none;top=0;left=0;bottom=0;right=0;align=left;spacingLeft=6;overflow=hidden;strokeColor=inherit;fontSize=16;" parent="yWSRPp1NiUVczaKX_BIT-5" vertex="1">
          <mxGeometry x="42" width="148" height="30" as="geometry">
            <mxRectangle width="148" height="30" as="alternateBounds" />
          </mxGeometry>
        </mxCell>
        <mxCell id="yWSRPp1NiUVczaKX_BIT-8" value="" style="shape=tableRow;horizontal=0;startSize=0;swimlaneHead=0;swimlaneBody=0;top=0;left=0;bottom=0;right=0;collapsible=0;dropTarget=0;fillColor=none;points=[[0,0.5],[1,0.5]];portConstraint=eastwest;strokeColor=inherit;fontSize=16;" parent="yWSRPp1NiUVczaKX_BIT-1" vertex="1">
          <mxGeometry y="90" width="190" height="470" as="geometry" />
        </mxCell>
        <mxCell id="yWSRPp1NiUVczaKX_BIT-9" value="" style="shape=partialRectangle;html=1;whiteSpace=wrap;connectable=0;fillColor=none;top=0;left=0;bottom=0;right=0;overflow=hidden;strokeColor=inherit;fontSize=16;" parent="yWSRPp1NiUVczaKX_BIT-8" vertex="1">
          <mxGeometry width="42" height="470" as="geometry">
            <mxRectangle width="42" height="470" as="alternateBounds" />
          </mxGeometry>
        </mxCell>
        <mxCell id="yWSRPp1NiUVczaKX_BIT-10" value="" style="shape=partialRectangle;html=1;whiteSpace=wrap;connectable=0;fillColor=none;top=0;left=0;bottom=0;right=0;align=left;spacingLeft=6;overflow=hidden;strokeColor=inherit;fontSize=16;" parent="yWSRPp1NiUVczaKX_BIT-8" vertex="1">
          <mxGeometry x="42" width="148" height="470" as="geometry">
            <mxRectangle width="148" height="470" as="alternateBounds" />
          </mxGeometry>
        </mxCell>
        <mxCell id="yWSRPp1NiUVczaKX_BIT-13" value="&lt;font style=&quot;font-size: 24px;&quot;&gt;开始&lt;/font&gt;" style="shape=ext;double=1;rounded=1;whiteSpace=wrap;html=1;" parent="yWSRPp1NiUVczaKX_BIT-8" vertex="1">
          <mxGeometry x="190" height="470" as="geometry">
            <mxRectangle width="NaN" height="470" as="alternateBounds" />
          </mxGeometry>
        </mxCell>
        <mxCell id="yWSRPp1NiUVczaKX_BIT-15" value="" style="whiteSpace=wrap;html=1;rounded=1;" parent="yWSRPp1NiUVczaKX_BIT-8" vertex="1">
          <mxGeometry height="470" as="geometry">
            <mxRectangle width="NaN" height="470" as="alternateBounds" />
          </mxGeometry>
        </mxCell>
        <mxCell id="yWSRPp1NiUVczaKX_BIT-11" value="" style="line;strokeWidth=2;html=1;" parent="1" vertex="1">
          <mxGeometry x="360" y="270" width="150" height="10" as="geometry" />
        </mxCell>
        <mxCell id="yWSRPp1NiUVczaKX_BIT-19" value="" style="endArrow=open;endFill=1;endSize=12;html=1;rounded=0;exitX=0.5;exitY=1;exitDx=0;exitDy=0;entryX=0.5;entryY=0;entryDx=0;entryDy=0;" parent="1" target="yWSRPp1NiUVczaKX_BIT-20" edge="1">
          <mxGeometry width="160" relative="1" as="geometry">
            <mxPoint x="430" y="350" as="sourcePoint" />
            <mxPoint x="662" y="444" as="targetPoint" />
            <Array as="points">
              <mxPoint x="430" y="370" />
            </Array>
          </mxGeometry>
        </mxCell>
        <mxCell id="yWSRPp1NiUVczaKX_BIT-20" value="&lt;font style=&quot;font-size: 14px;&quot;&gt;委托加工调运指令&lt;/font&gt;" style="rounded=0;whiteSpace=wrap;html=1;" parent="1" vertex="1">
          <mxGeometry x="370" y="410" width="120" height="60" as="geometry" />
        </mxCell>
        <mxCell id="yWSRPp1NiUVczaKX_BIT-21" value="&lt;font style=&quot;font-size: 17px;&quot;&gt;调运合同申办&lt;/font&gt;" style="rounded=0;whiteSpace=wrap;html=1;" parent="1" vertex="1">
          <mxGeometry x="370" y="520" width="120" height="60" as="geometry" />
        </mxCell>
        <mxCell id="yWSRPp1NiUVczaKX_BIT-25" value="&lt;font style=&quot;font-size: 20px;&quot;&gt;开始&lt;/font&gt;" style="strokeWidth=2;html=1;shape=mxgraph.flowchart.terminator;whiteSpace=wrap;" parent="1" vertex="1">
          <mxGeometry x="380" y="290" width="100" height="60" as="geometry" />
        </mxCell>
        <mxCell id="yWSRPp1NiUVczaKX_BIT-26" value="&lt;font style=&quot;font-size: 20px;&quot;&gt;结束&lt;/font&gt;" style="strokeWidth=2;html=1;shape=mxgraph.flowchart.terminator;whiteSpace=wrap;" parent="1" vertex="1">
          <mxGeometry x="380" y="630" width="100" height="60" as="geometry" />
        </mxCell>
        <mxCell id="yWSRPp1NiUVczaKX_BIT-27" value="" style="endArrow=open;endFill=1;endSize=12;html=1;rounded=0;exitX=0.5;exitY=1;exitDx=0;exitDy=0;" parent="1" edge="1">
          <mxGeometry width="160" relative="1" as="geometry">
            <mxPoint x="429.5" y="470" as="sourcePoint" />
            <mxPoint x="430" y="520" as="targetPoint" />
            <Array as="points">
              <mxPoint x="429.5" y="490" />
            </Array>
          </mxGeometry>
        </mxCell>
        <mxCell id="yWSRPp1NiUVczaKX_BIT-28" value="" style="endArrow=open;endFill=1;endSize=12;html=1;rounded=0;entryX=0.5;entryY=0;entryDx=0;entryDy=0;" parent="1" edge="1">
          <mxGeometry width="160" relative="1" as="geometry">
            <mxPoint x="430" y="580" as="sourcePoint" />
            <mxPoint x="429.5" y="630" as="targetPoint" />
            <Array as="points">
              <mxPoint x="429.5" y="590" />
            </Array>
          </mxGeometry>
        </mxCell>
      </root>
    </mxGraphModel>
  </diagram>
</mxfile>
